<mxfile host="app.diagrams.net" modified="2023-05-30T06:12:55.897Z" agent="Mozilla/5.0 (Windows NT 10.0; Win64; x64) AppleWebKit/537.36 (KHTML, like Gecko) Chrome/113.0.0.0 Safari/537.36" version="21.3.5" etag="XqYwFtuOLF4U6z8zepkp" type="github">
  <diagram name="第 1 页" id="Qx2e2OXYAjIE-r6zO1r4">
    <mxGraphModel>
      <root>
        <mxCell id="0" />
        <mxCell id="1" parent="0" />
      </root>
    </mxGraphModel>
  </diagram>
</mxfile>
